HIERARCHY
ROOT root
{
	OFFSET	0	13.1	24.9
	CHANNELS 6  Xposition Yposition Zposition Xrotation Yrotation Zrotation
	JOINT spine_1
	{
		OFFSET	0	9.99999	0
		CHANNELS 3  Xrotation Yrotation Zrotation
		JOINT spine_2
		{
			OFFSET	0	112	-10
			CHANNELS 3  Xrotation Yrotation Zrotation
			JOINT spine_3
			{
				OFFSET	0	206.5	19.3
				CHANNELS 3  Xrotation Yrotation Zrotation
				JOINT spine_4
				{
					OFFSET	0	110.4	14.6
					CHANNELS 3  Xrotation Yrotation Zrotation
					JOINT neck_1
					{
						OFFSET	0	71.8	-50.3
						CHANNELS 3  Xrotation Yrotation Zrotation
						JOINT neck_2
						{
							OFFSET	0	86.2	-25.8
							CHANNELS 3  Xrotation Yrotation Zrotation
							JOINT head_ee
							{
								OFFSET	0	179.8	-8.7
								CHANNELS 3  Xrotation Yrotation Zrotation
								End Site
								{
									OFFSET	1	0	0
								}
							}
						}
					}
					JOINT left_clavicle
					{
						OFFSET	-43.2	22.4	-70.8
						CHANNELS 3  Xrotation Yrotation Zrotation
						JOINT left_shoulder
						{
							OFFSET	-93.9	-5.79999	48.7
							CHANNELS 3  Xrotation Yrotation Zrotation
							JOINT left_elbow
							{
								OFFSET	-291.4	-30.8	15.2
								CHANNELS 3  Xrotation Yrotation Zrotation
								JOINT left_lowarm_twist
								{
									OFFSET	-110.7	-3.89999	13.6
									CHANNELS 3  Xrotation Yrotation Zrotation
									JOINT left_hand
									{
										OFFSET	-110.7	-3.89999	13.6
										CHANNELS 3  Xrotation Yrotation Zrotation
										JOINT left_ee
										{
											OFFSET	-80.8	-5.10001	12.1
											CHANNELS 3  Xrotation Yrotation Zrotation
											End Site
											{
												OFFSET	1	0	0
											}
										}
									}
								}
							}
						}
					}
					JOINT right_clavicle
					{
						OFFSET	43.2	22.4	-70.8
						CHANNELS 3  Xrotation Yrotation Zrotation
						JOINT right_shoulder
						{
							OFFSET	93.9	-5.79999	48.7
							CHANNELS 3  Xrotation Yrotation Zrotation
							JOINT right_elbow
							{
								OFFSET	291.4	-30.8	15.2
								CHANNELS 3  Xrotation Yrotation Zrotation
								JOINT right_lowarm_twist
								{
									OFFSET	110.7	-3.89999	13.6
									CHANNELS 3  Xrotation Yrotation Zrotation
									JOINT right_hand
									{
										OFFSET	110.7	-3.89999	13.6
										CHANNELS 3  Xrotation Yrotation Zrotation
										JOINT right_ee
										{
											OFFSET	80.8	-5.10001	12.1
											CHANNELS 3  Xrotation Yrotation Zrotation
											End Site
											{
												OFFSET	1	0	0
											}
										}
									}
								}
							}
						}
					}
				}
			}
		}
	}
	JOINT left_hip
	{
		OFFSET	-82.8	-127.5	0.300001
		CHANNELS 3  Xrotation Yrotation Zrotation
		JOINT left_knee
		{
			OFFSET	-28.2	-396.7	2.2
			CHANNELS 3  Xrotation Yrotation Zrotation
			JOINT left_ankle
			{
				OFFSET	-11.7	-411.3	35.4
				CHANNELS 3  Xrotation Yrotation Zrotation
				JOINT left_toes
				{
					OFFSET	0	-60	-88.6
					CHANNELS 3  Xrotation Yrotation Zrotation
					JOINT left_foot_ee
					{
						OFFSET	-22.5	-16.5	-42.2
						CHANNELS 3  Xrotation Yrotation Zrotation
						End Site
						{
							OFFSET	1	0	0
						}
					}
				}
			}
		}
	}
	JOINT right_hip
	{
		OFFSET	82.8	-127.5	0.300001
		CHANNELS 3  Xrotation Yrotation Zrotation
		JOINT right_knee
		{
			OFFSET	28.2	-396.7	2.2
			CHANNELS 3  Xrotation Yrotation Zrotation
			JOINT right_ankle
			{
				OFFSET	11.7	-411.3	35.4
				CHANNELS 3  Xrotation Yrotation Zrotation
				JOINT right_toes
				{
					OFFSET	0	-60	-88.6
					CHANNELS 3  Xrotation Yrotation Zrotation
					JOINT right_foot_ee
					{
						OFFSET	22.5	-16.5	-42.2
						CHANNELS 3  Xrotation Yrotation Zrotation
						End Site
						{
							OFFSET	1	0	0
						}
					}
				}
			}
		}
	}
}
MOTION
Frames: 6
Frame Time: 0.02
1041.4 574.639 -1682.42 51.3645403934 79.774090125 -46.3412377802 -2.79404 0.192383 -0.542762 -2.79391 0.22653 -0.52942 -2.79596 0.355281 -0.453187 -2.79614 0.27925 -0.503608 -10.1118 14.0047 8.34744 -10.0706 20.8044 11.619 -0.0 0.0 -0.0 2.23024 24.7763 5.82746 -12.8418 3.92338 72.6375 0.707831 -19.3227 0.120502 -25.9674 -1.59688 2.88199 1.62062 25.0659 19.4706 -0.0 0.0 -0.0 12.2585 14.2024 -24.814 8.56397 31.5051 -59.1042 1.11777 28.9729 -0.288801 -58.9244 5.14929 -5.06644 -12.1226 -32.6845 68.2047 0.0 0.0 0.0 17.4435 -3.08489 -14.3099 -8.04362 0.246659 1.2088 5.74821 -23.3366 -0.971134 -30.2747 0.0 0.0 -0.0 0.0 -0.0 -23.0491 8.55491 -6.69152 -6.9257 -0.222576 -1.03894 40.9441 -7.76389 4.94488 -11.4561 0.0 0.0 0.0 0.0 0.0 
1041.4 574.639 -1682.42 53.3905301554 80.0518965731 -48.3990222411 -2.79404 0.192383 -0.542762 -2.79391 0.22653 -0.52942 -2.79596 0.355281 -0.453187 -2.79614 0.27925 -0.503608 -10.1118 14.0047 8.34744 -10.0706 20.8044 11.619 -0.0 0.0 -0.0 2.23024 24.7763 5.82746 -12.8418 3.92338 72.6375 0.707831 -19.3227 0.120502 -25.9674 -1.59688 2.88199 1.62062 25.0659 19.4706 -0.0 0.0 -0.0 12.2585 14.2024 -24.814 8.56397 31.5051 -59.1042 1.11777 28.9729 -0.288801 -58.9244 5.14929 -5.06644 -12.1226 -32.6845 68.2047 0.0 0.0 0.0 17.4435 -3.08489 -14.3099 -8.04362 0.246659 1.2088 5.74821 -23.3366 -0.971134 -30.2747 0.0 0.0 -0.0 0.0 -0.0 -23.0491 8.55491 -6.69152 -6.9257 -0.222576 -1.03894 40.9441 -7.76389 4.94488 -11.4561 0.0 0.0 0.0 0.0 0.0 
1024.93873764 574.123 -1677.85543631 56.8650084908 81.319569569 -51.5584759224 -2.53199 0.0483861 -0.638698 -2.53176 0.0889293 -0.634325 -2.53256 0.246635 -0.591143 -2.53302 0.150182 -0.622674 -8.92083 13.6947 7.04183 -8.88619 20.8405 10.0881 -0.0 0.0 -0.0 2.8167 24.7549 6.61205 -13.3069 1.60417 71.7975 0.75508 -20.508 0.136597 -24.5475 -1.4769 2.74518 1.862 25.5248 21.0597 -0.0 0.0 -0.0 12.1178 12.6444 -24.5261 7.24307 30.3084 -59.9587 1.09502 28.4765 -0.277869 -58.129 5.05102 -5.03913 -12.2309 -33.134 68.4268 0.0 0.0 0.0 17.4683 -2.85637 -14.3191 -8.2252 0.250257 1.23643 7.74237 -21.6477 -1.27599 -29.0684 0.0 0.0 -0.0 0.0 -0.0 -22.636 6.46508 -7.15541 -6.87953 -0.22151 -1.03194 40.9374 -8.56823 4.94831 -10.8183 0.0 0.0 0.0 0.0 0.0 
1024.95273385 574.123 -1677.80525882 57.8339559 81.4138389629 -52.5385271218 -2.53199 0.0483861 -0.638698 -2.53176 0.0889293 -0.634325 -2.53256 0.246635 -0.591143 -2.53302 0.150182 -0.622674 -8.92083 13.6947 7.04183 -8.88619 20.8405 10.0881 -0.0 0.0 -0.0 2.8167 24.7549 6.61205 -13.3069 1.60417 71.7975 0.75508 -20.508 0.136597 -24.5475 -1.4769 2.74518 1.862 25.5248 21.0597 -0.0 0.0 -0.0 12.1178 12.6444 -24.5261 7.24307 30.3084 -59.9587 1.09502 28.4765 -0.277869 -58.129 5.05102 -5.03913 -12.2309 -33.134 68.4268 0.0 0.0 0.0 17.4683 -2.85637 -14.3191 -8.2252 0.250257 1.23643 7.74237 -21.6477 -1.27599 -29.0684 0.0 0.0 -0.0 0.0 -0.0 -22.636 6.46508 -7.15541 -6.87953 -0.22151 -1.03194 40.9374 -8.56823 4.94831 -10.8183 0.0 0.0 0.0 0.0 0.0 
1024.99778795 574.123 -1677.64759602 61.0233486166 81.6936768049 -55.7628629672 -2.53199 0.0483861 -0.638698 -2.53176 0.0889293 -0.634325 -2.53256 0.246635 -0.591143 -2.53302 0.150182 -0.622674 -8.92083 13.6947 7.04183 -8.88619 20.8405 10.0881 -0.0 0.0 -0.0 2.8167 24.7549 6.61205 -13.3069 1.60417 71.7975 0.75508 -20.508 0.136597 -24.5475 -1.4769 2.74518 1.862 25.5248 21.0597 -0.0 0.0 -0.0 12.1178 12.6444 -24.5261 7.24307 30.3084 -59.9587 1.09502 28.4765 -0.277869 -58.129 5.05102 -5.03913 -12.2309 -33.134 68.4268 0.0 0.0 0.0 17.4683 -2.85637 -14.3191 -8.2252 0.250257 1.23643 7.74237 -21.6477 -1.27599 -29.0684 0.0 0.0 -0.0 0.0 -0.0 -22.636 6.46508 -7.15541 -6.87953 -0.22151 -1.03194 40.9374 -8.56823 4.94831 -10.8183 0.0 0.0 0.0 0.0 0.0 
1025.03167943 574.123 -1677.53262015 63.4889215193 81.8808803579 -58.25397213 -2.53199 0.0483861 -0.638698 -2.53176 0.0889293 -0.634325 -2.53256 0.246635 -0.591143 -2.53302 0.150182 -0.622674 -8.92083 13.6947 7.04183 -8.88619 20.8405 10.0881 -0.0 0.0 -0.0 2.8167 24.7549 6.61205 -13.3069 1.60417 71.7975 0.75508 -20.508 0.136597 -24.5475 -1.4769 2.74518 1.862 25.5248 21.0597 -0.0 0.0 -0.0 12.1178 12.6444 -24.5261 7.24307 30.3084 -59.9587 1.09502 28.4765 -0.277869 -58.129 5.05102 -5.03913 -12.2309 -33.134 68.4268 0.0 0.0 0.0 17.4683 -2.85637 -14.3191 -8.2252 0.250257 1.23643 7.74237 -21.6477 -1.27599 -29.0684 0.0 0.0 -0.0 0.0 -0.0 -22.636 6.46508 -7.15541 -6.87953 -0.22151 -1.03194 40.9374 -8.56823 4.94831 -10.8183 0.0 0.0 0.0 0.0 0.0 
